<svg width="96" height="96" viewBox="0 0 96 96" fill="none" xmlns="http://www.w3.org/2000/svg">
<mask id="mask0_26_1767" style="mask-type:luminance" maskUnits="userSpaceOnUse" x="4" y="4" width="88" height="88">
<path d="M48 88C53.2538 88.0065 58.4572 86.9748 63.3111 84.9642C68.1649 82.9536 72.5737 80.0037 76.284 76.284C80.0037 72.5737 82.9536 68.1649 84.9642 63.3111C86.9748 58.4572 88.0065 53.2538 88 48C88.0065 42.7462 86.9748 37.5429 84.9642 32.689C82.9536 27.8351 80.0037 23.4264 76.284 19.716C72.5737 15.9964 68.1649 13.0465 63.3111 11.0359C58.4572 9.02525 53.2538 7.99355 48 8.00003C42.7462 7.99355 37.5429 9.02525 32.689 11.0359C27.8351 13.0465 23.4264 15.9964 19.716 19.716C15.9964 23.4264 13.0465 27.8351 11.0359 32.689C9.02525 37.5429 7.99355 42.7462 8.00003 48C7.99355 53.2538 9.02525 58.4572 11.0359 63.3111C13.0465 68.1649 15.9964 72.5737 19.716 76.284C23.4264 80.0037 27.8351 82.9536 32.689 84.9642C37.5429 86.9748 42.7462 88.0065 48 88Z" fill="white" stroke="white" stroke-width="8" stroke-linejoin="round"/>
<path d="M32 48L44 60L68 36" stroke="black" stroke-width="8" stroke-linecap="round" stroke-linejoin="round"/>
</mask>
<g mask="url(#mask0_26_1767)">
<path d="M0 0H96V96H0V0Z" fill="#7DD971"/>
</g>
</svg>
