<svg width="30" height="30" viewBox="0 0 30 30" fill="none" xmlns="http://www.w3.org/2000/svg">
<path d="M5 24.635V12.7708C5 12.4213 5.0819 12.0905 5.24571 11.7784C5.40952 11.4663 5.63524 11.2092 5.92286 11.0072L13.6157 5.44088C14.0186 5.14696 14.4786 5 14.9957 5C15.5129 5 15.9757 5.14696 16.3843 5.44088L24.0771 11.0059C24.3657 11.2079 24.5914 11.4654 24.7543 11.7784C24.9181 12.0905 25 12.4213 25 12.7708V24.635C25 25.0008 24.8576 25.3198 24.5729 25.5919C24.2881 25.864 23.9543 26 23.5714 26H18.7371C18.4095 26 18.1352 25.8944 17.9143 25.6833C17.6933 25.4713 17.5829 25.2092 17.5829 24.8971V18.3876C17.5829 18.0755 17.4724 17.8138 17.2514 17.6027C17.0295 17.3907 16.7552 17.2847 16.4286 17.2847H13.5714C13.2448 17.2847 12.971 17.3907 12.75 17.6027C12.5281 17.8138 12.4171 18.0755 12.4171 18.3876V24.8985C12.4171 25.2106 12.3067 25.4722 12.0857 25.6833C11.8648 25.8944 11.591 26 11.2643 26H6.42857C6.04571 26 5.7119 25.864 5.42714 25.5919C5.14238 25.3198 5 25.0008 5 24.635Z" fill="#7DD971"/>
</svg>
