<svg width="30" height="30" viewBox="0 0 30 30" fill="none" xmlns="http://www.w3.org/2000/svg">
<path d="M15 15.736C19.7782 15.736 24.6813 18.7934 24.9988 24.9356C25.011 25.1724 24.9273 25.4042 24.7659 25.5803C24.6045 25.7563 24.3788 25.8621 24.1382 25.8744C21.617 26.0009 9.94058 26.0784 5.86299 25.8744C5.62221 25.8624 5.39614 25.7567 5.23452 25.5807C5.0729 25.4046 4.98896 25.1726 5.00117 24.9356C5.31874 18.7946 10.2218 15.736 15 15.736ZM15 5C13.7945 5 12.6383 5.4713 11.7859 6.31021C10.9334 7.14913 10.4545 8.28694 10.4545 9.47335C10.4545 10.6598 10.9334 11.7976 11.7859 12.6365C12.6383 13.4754 13.7945 13.9467 15 13.9467C16.2055 13.9467 17.3617 13.4754 18.2141 12.6365C19.0666 11.7976 19.5455 10.6598 19.5455 9.47335C19.5455 8.28694 19.0666 7.14913 18.2141 6.31021C17.3617 5.4713 16.2055 5 15 5Z" fill="#E0E0E0"/>
</svg>
