<svg width="30" height="30" viewBox="0 0 30 30" fill="none" xmlns="http://www.w3.org/2000/svg">
<path d="M25 5.1V7.3C25 9.34217 24.1849 11.3007 22.7339 12.7447C21.283 14.1888 19.3151 15 17.2632 15H16.1579V16.1H21.6842V23.8C21.6842 24.3835 21.4513 24.9431 21.0368 25.3556C20.6222 25.7682 20.06 26 19.4737 26H10.6316C10.0453 26 9.48305 25.7682 9.0685 25.3556C8.65395 24.9431 8.42105 24.3835 8.42105 23.8V16.1H13.9474V12.8C13.9474 10.7578 14.7625 8.79931 16.2134 7.35528C17.6644 5.91125 19.6323 5.1 21.6842 5.1H25ZM7.86842 4C9.19471 3.99893 10.5018 4.31502 11.6798 4.92166C12.8577 5.5283 13.8719 6.40773 14.6371 7.4859C13.4697 9.01361 12.839 10.8807 12.8421 12.8V13.9H12.2895C10.091 13.9 7.98251 13.0308 6.42793 11.4836C4.87335 9.93646 4 7.83804 4 5.65V4H7.86842Z" fill="#E0E0E0"/>
</svg>
